<?xml version="1.0" encoding="utf-8"?>
<!-- Generator: Adobe Illustrator 21.1.0, SVG Export Plug-In . SVG Version: 6.00 Build 0)  -->
<svg version="1.1" xmlns="http://www.w3.org/2000/svg" xmlns:xlink="http://www.w3.org/1999/xlink" x="0px" y="0px"
	 viewBox="0 0 907.1 907.1" style="enable-background:new 0 0 907.1 907.1;" xml:space="preserve">
<style type="text/css">
	.st0{display:none;}
	.st1{display:inline;}
	.st2{fill:#51B3FF;stroke:#0061FF;stroke-width:30;stroke-miterlimit:10;}
	.st3{display:inline;fill:#51B3FF;stroke:#0061FF;stroke-width:30;stroke-miterlimit:10;}
	.st4{fill:#FFC0C0;stroke:#FF3122;stroke-width:30;stroke-miterlimit:10;}
	.st5{fill:#73FFB3;stroke:#187538;stroke-width:30;stroke-miterlimit:10;}
	.st6{display:inline;fill:none;stroke:#187538;stroke-width:60;stroke-linecap:round;stroke-linejoin:round;stroke-miterlimit:10;}
</style>
<g id="レイヤー_1" class="st0">
	<g class="st1">
		<path class="st2" d="M181.3,696.4c-20.3-9.3-37.9-30-52.8-62.4c-15-32.3-22.5-61-22.5-86.1c0-7,0.5-14.6,1.7-22.5
			c1.1-7.9,2.2-14.6,3.3-20.1c1.1-5.5,3.1-12.8,5.9-21.8c2.9-9,5.1-15.5,6.6-19.5c1.5-4,4.3-11.2,8.2-21.8c4-10.6,6.4-17.2,7.3-19.8
			c26.4-72.2,74.1-142.7,142.9-211.6C350.8,142.1,421.3,94.4,493.5,68c2.7-0.9,9.3-3.3,19.8-7.2c10.6-4,17.8-6.7,21.8-8.3
			c4-1.5,10.4-3.7,19.5-6.6c9.1-2.9,16.3-4.9,21.8-6c5.5-1.1,12.2-2.2,20.1-3.3c7.9-1.1,15.4-1.7,22.4-1.7
			c25.1,0,53.8,7.5,86.2,22.5c32.3,15,53.1,32.6,62.3,52.8c9.7,23.3,14.6,45.5,14.6,66.7c0,4.8-0.5,8.3-1.3,10.6
			c-0.9,2.2-4.8,5.8-11.9,10.9c-7,5.1-15.9,10.6-26.7,16.5c-10.8,6-21.2,11.8-31.4,17.5c-10.1,5.7-20.1,11.2-30,16.5
			c-9.9,5.3-16.2,8.6-18.8,9.9c-2.2,1.3-6.4,4.2-12.5,8.6c-6.2,4.4-11.7,7.7-16.5,9.9c-4.9,2.2-9.4,3.3-13.9,3.3
			c-6.6,0-14.6-4.5-24.1-13.5c-9.4-9.1-18.2-18.9-26.1-29.7c-7.9-10.8-16.4-20.7-25.4-29.7c-9-9-16.4-13.5-22.1-13.5
			c-3.1,0-6.7,0.7-10.9,2.3c-4.2,1.5-7.6,3-10.2,4.3c-2.7,1.3-6.4,3.4-11.2,6.2c-4.9,2.8-7.9,4.8-9.3,5.6
			c-43.5,24.2-81.1,52-112.5,83.5c-31.4,31.4-59.3,69-83.5,112.5c-0.9,1.3-2.7,4.4-5.6,9.3c-2.8,4.8-4.9,8.6-6.2,11.2
			c-1.3,2.6-2.7,6-4.3,10.2c-1.5,4.2-2.3,7.8-2.3,10.9c0,7,7.3,16.7,21.8,29c14.5,12.3,29,24.8,43.2,37.6
			c14.3,12.7,21.4,23.1,21.4,31c0,4.4-1.1,9-3.3,13.9c-2.2,4.8-5.5,10.3-9.9,16.5c-4.4,6.1-7.2,10.3-8.6,12.5l-19.1,35
			c-12.3,23.3-23.2,42.8-32.7,58.4c-9.5,15.6-15.9,24.1-19.5,25.4c-2.2,0.9-5.7,1.3-10.6,1.3C226.8,711,204.5,706.1,181.3,696.4
			L181.3,696.4z M181.3,696.4"/>
	</g>
	<path class="st3" d="M718.7,405l-190.9,0c-18,0-33.3,14.8-33.9,32.8l-6.4,199.5c-0.6,18,9.4,22.3,22.1,9.6l79.8-79.8
		c0.8,0.7,1.4,1.4,1.9,1.9c68.5,68.5,108.8,154.4,121,243.5c2.6,19.3,3.4,41.7,3.4,41.7c0.3,9,7.9,16.4,17,16.4h52.5
		c9,0,16.2-7.4,15.9-16.4c0,0-0.9-27.9-3.8-49.9c-14-108.1-62.6-212.5-145.6-295.6c-0.5-0.5-1.1-1.1-1.9-1.9l78.6-78.6
		C741.1,415.4,736.8,405,718.7,405z"/>
</g>
<g id="レイヤー_1のコピー">
	<g>
		<path class="st4" d="M39.1,787.2c-7.8-20.9-5.5-48,6.8-81.5c12.3-33.5,27.3-59,45-76.8c5-5,10.7-9.9,17.1-14.7
			c6.4-4.8,11.9-8.8,16.5-11.9c4.7-3.1,11.2-6.9,19.6-11.2c8.4-4.3,14.6-7.4,18.4-9.1c3.9-1.7,11-4.9,21.2-9.6
			c10.3-4.6,16.7-7.6,19.1-8.8c69.7-32.3,153.3-48.5,250.6-48.6c97.4,0,181,16.2,250.7,48.5c2.5,1.3,8.9,4.2,19.1,8.9
			c10.3,4.7,17.4,7.8,21.2,9.5c3.9,1.7,10,4.8,18.4,9.1c8.4,4.4,15,8.1,19.6,11.2c4.6,3.1,10.2,7.1,16.6,11.9
			c6.4,4.8,12.1,9.7,17,14.7c17.7,17.7,32.7,43.4,45,76.8c12.3,33.4,14.5,60.6,6.7,81.4c-9.6,23.3-21.9,42.5-36.8,57.4
			c-3.4,3.4-6.2,5.6-8.4,6.5c-2.2,1-7.5,0.7-16.1-0.7c-8.6-1.4-18.7-3.8-30.6-7.2c-11.9-3.4-23.4-6.7-34.6-9.8
			c-11.2-3.1-22.1-6.3-32.9-9.6c-10.7-3.3-17.5-5.4-20.3-6.3c-2.5-0.6-7.5-1.5-14.9-2.8c-7.5-1.3-13.7-2.8-18.7-4.7
			c-5-1.9-9-4.3-12.2-7.5c-4.7-4.7-7.2-13.5-7.5-26.6c-0.3-13.1,0.6-26.2,2.6-39.4c2-13.2,3-26.2,3.1-39c0-12.7-2-21.2-6.1-25.2
			c-2.2-2.2-5.3-4.2-9.3-6.1c-4.1-1.9-7.5-3.3-10.3-4.2c-2.8-1-6.9-2.1-12.4-3.5c-5.4-1.4-9-2.2-10.5-2.6
			c-47.9-13.7-94.1-20.5-138.6-20.5c-44.5,0-90.7,6.8-138.6,20.5c-1.5,0.3-5,1.2-10.5,2.6c-5.4,1.4-9.5,2.6-12.3,3.5
			c-2.8,0.9-6.2,2.3-10.3,4.2c-4.1,1.9-7.2,3.9-9.4,6.1c-4.9,4.9-6.7,16.9-5.1,35.9c1.6,19,2.9,38,4,57.2
			c1.1,19.1-1.1,31.5-6.8,37.1c-3.1,3.1-7.2,5.6-12.1,7.5c-5,1.8-11.2,3.4-18.7,4.6c-7.4,1.2-12.4,2.2-14.9,2.8l-38.2,11.2
			c-25.2,7.7-46.7,13.8-64.4,18.2c-17.7,4.3-28.3,5.8-31.7,4.2c-2.2-0.9-5-3.1-8.4-6.5C61,829.6,48.7,810.5,39.1,787.2L39.1,787.2z
			 M39.1,787.2"/>
	</g>
	<path class="st4" d="M608.3,278.6H495.5V60.2c0-7.8-6.4-14.2-14.2-14.2h-56.9c-7.8,0-14.2,6.4-14.2,14.2v218.4H299
		c-18,0-22.4,10.4-9.6,23.2l135,135c12.8,12.8,34,13.1,47.1,0.8L617.2,301C630.4,288.7,626.4,278.6,608.3,278.6z"/>
</g>
<g id="レイヤー_1のコピー_2" class="st0">
	<g class="st1">
		<path class="st5" d="M705.4,789.7c-9.3,20.3-30,37.9-62.4,52.8c-32.3,15-61,22.5-86.1,22.5c-7,0-14.6-0.5-22.5-1.7
			c-7.9-1.1-14.6-2.2-20.1-3.3c-5.5-1.1-12.8-3.1-21.8-5.9c-9-2.9-15.5-5.1-19.5-6.6c-4-1.5-11.2-4.3-21.8-8.2
			c-10.6-4-17.2-6.4-19.8-7.3c-72.2-26.4-142.7-74.1-211.6-142.9C151,620.1,103.4,549.6,77,477.5c-0.9-2.7-3.3-9.3-7.2-19.8
			c-4-10.6-6.7-17.8-8.3-21.8c-1.5-4-3.7-10.4-6.6-19.5c-2.9-9.1-4.9-16.3-6-21.8c-1.1-5.5-2.2-12.2-3.3-20.1
			c-1.1-7.9-1.7-15.4-1.7-22.4c0-25.1,7.5-53.8,22.5-86.2c15-32.3,32.6-53.1,52.8-62.3c23.3-9.7,45.5-14.6,66.7-14.6
			c4.8,0,8.3,0.5,10.6,1.3c2.2,0.9,5.8,4.8,10.9,11.9c5.1,7,10.6,15.9,16.5,26.7c6,10.8,11.8,21.2,17.5,31.4
			c5.7,10.1,11.2,20.1,16.5,30c5.3,9.9,8.6,16.2,9.9,18.8c1.3,2.2,4.2,6.4,8.6,12.5c4.4,6.2,7.7,11.7,9.9,16.5
			c2.2,4.9,3.3,9.4,3.3,13.9c0,6.6-4.5,14.6-13.5,24.1c-9.1,9.4-18.9,18.2-29.7,26.1c-10.8,7.9-20.7,16.4-29.7,25.4
			c-9,9-13.5,16.4-13.5,22.1c0,3.1,0.7,6.7,2.3,10.9c1.5,4.2,3,7.6,4.3,10.2c1.3,2.7,3.4,6.4,6.2,11.2c2.8,4.9,4.8,7.9,5.6,9.3
			c24.2,43.5,52,81.1,83.5,112.5c31.4,31.4,69,59.3,112.5,83.5c1.3,0.9,4.4,2.7,9.3,5.6c4.8,2.8,8.6,4.9,11.2,6.2
			c2.6,1.3,6,2.7,10.2,4.3c4.2,1.5,7.8,2.3,10.9,2.3c7,0,16.7-7.3,29-21.8c12.3-14.5,24.8-29,37.6-43.2c12.7-14.3,23.1-21.4,31-21.4
			c4.4,0,9,1.1,13.9,3.3c4.8,2.2,10.3,5.5,16.5,9.9c6.1,4.4,10.3,7.2,12.5,8.6l35,19.1c23.3,12.3,42.8,23.2,58.4,32.7
			c15.6,9.5,24.1,15.9,25.4,19.5c0.9,2.2,1.3,5.7,1.3,10.6C720,744.2,715.1,766.4,705.4,789.7L705.4,789.7z M705.4,789.7"/>
	</g>
	<path class="st6" d="M567,477c0-74.6-60.4-135-135-135"/>
	<path class="st6" d="M702,477c0-149.1-120.9-270-270-270"/>
	<path class="st6" d="M837,477c0-223.7-181.3-405-405-405"/>
</g>
</svg>
